<?xml version="1.0" encoding="UTF-8"?>
<svg xmlns="http://www.w3.org/2000/svg" xmlns:xlink="http://www.w3.org/1999/xlink" width="32px" height="32px" viewBox="0 0 32 32" version="1.1">
<g id="surface1">
<path style=" stroke:none;fill-rule:nonzero;fill:rgb(56.470588%,21.960784%,78.431373%);fill-opacity:1;" d="M 16 2 L 28.078125 6.328125 L 26.289062 24.445312 L 16 30 L 5.710938 24.445312 L 3.921875 6.328125 Z M 16 2 "/>
<path style=" stroke:none;fill-rule:nonzero;fill:rgb(77.647059%,38.823529%,93.333333%);fill-opacity:1;" d="M 26.136719 7.195312 L 16 2.855469 L 16 28.898438 L 24.933594 24.101562 Z M 26.136719 7.195312 "/>
<path style=" stroke:none;fill-rule:nonzero;fill:rgb(100%,100%,100%);fill-opacity:1;" d="M 19.085938 12.851562 L 11.835938 12.851562 L 11.605469 15.242188 L 16.953125 15.242188 L 16.613281 19.121094 L 16.003906 19.121094 L 15.394531 19.121094 L 15.050781 19.121094 L 14.648438 21.695312 L 16.003906 21.695312 L 17.355469 21.695312 L 20.265625 21.695312 L 20.554688 18.960938 L 17.929688 18.960938 L 18.050781 17.515625 L 20.894531 17.515625 L 21.191406 14.898438 L 18.007812 14.898438 L 18.125 13.140625 L 22.941406 13.140625 L 22.289062 16.371094 L 22.289062 16.488281 L 21.828125 19.808594 L 21.828125 19.925781 L 21.371094 23.246094 L 12.535156 23.246094 L 12.003906 27.011719 L 16.003906 27.011719 L 20 27.011719 L 19.839844 27.996094 L 16.003906 27.996094 L 12.164062 27.996094 L 11.429688 27.996094 L 11.546875 27.128906 L 11.894531 24.554688 L 12.234375 21.984375 L 12.582031 19.410156 L 12.929688 16.835938 L 13.277344 14.265625 L 13.625 11.691406 L 13.789062 10.367188 L 19.390625 10.367188 Z M 19.085938 12.851562 "/>
</g>
</svg>