<svg width="200" height="50" viewBox="0 0 200 50" fill="none" xmlns="http://www.w3.org/2000/svg">
  <path d="M5 10H15L25 35H26L35 10H45V45H38V20H37L28 45H22L13 20H12V45H5V10Z" fill="white"/>
  <path d="M77 10L67 25V45H60V25L50 10H58L65 21L72 10H77Z" fill="white"/>
  <path d="M85 10H92V38H105V45H85V10Z" fill="white"/>
  <path d="M113 10H120V45H113V10Z" fill="white"/>
  <path d="M128 10H135V38H148V45H128V10Z" fill="white"/>
  <path d="M158 15.5C158 10.8056 161.806 7 166.5 7H173.5C178.194 7 182 10.8056 182 15.5V39.5C182 44.1944 178.194 48 173.5 48H166.5C161.806 48 158 44.1944 158 39.5V15.5Z" fill="#5B51F9"/>
  <path d="M158 8H158.5V45H158V8Z" fill="white"/>
  <path d="M182 8H182.5V45H182V8Z" fill="white"/>
  <path d="M188 8H195V45H188V8Z" fill="white"/>
  <path d="M60 20C60 15.5817 55.5228 12 50 12C44.4772 12 40 15.5817 40 20C40 24.4183 44.4772 28 50 28C55.5228 28 60 24.4183 60 20Z" fill="#5B51F9"/>
  <path d="M60 20C60 15.5817 55.5228 12 50 12C44.4772 12 40 15.5817 40 20C40 24.4183 44.4772 28 50 28C55.5228 28 60 24.4183 60 20Z" stroke="#5B51F9" stroke-width="2"/>
  <path d="M60 30C60 25.5817 55.5228 22 50 22C44.4772 22 40 25.5817 40 30C40 34.4183 44.4772 38 50 38C55.5228 38 60 34.4183 60 30Z" fill="#5B51F9"/>
  <path d="M60 30C60 25.5817 55.5228 22 50 22C44.4772 22 40 25.5817 40 30C40 34.4183 44.4772 38 50 38C55.5228 38 60 34.4183 60 30Z" stroke="#5B51F9" stroke-width="2"/>
  <path d="M60 40C60 35.5817 55.5228 32 50 32C44.4772 32 40 35.5817 40 40C40 44.4183 44.4772 48 50 48C55.5228 48 60 44.4183 60 40Z" fill="#5B51F9"/>
  <path d="M60 40C60 35.5817 55.5228 32 50 32C44.4772 32 40 35.5817 40 40C40 44.4183 44.4772 48 50 48C55.5228 48 60 44.4183 60 40Z" stroke="#5B51F9" stroke-width="2"/>
</svg>